# xmcd
#
# Track frame offsets: 
#        150
#        16252
#        32468
#        47359
#        60590
#        75268
#        87709
#        103970
#        119430
#        132697
#        145571
#        159113
#        172201
#        185729
#        198801
#        212515
#        225768
#        240211
#        253064
#        266195
#        279675
#        293623
#        305407
#
# Disc length: 4227 seconds
#
# Revision: 0
# Processed by: cddbd v1.5.2PL0 Copyright (c) Steve Scherf et al.
# Submitted via: ExactAudioCopyFreeDBPlugin 1.0
#
DISCID=38108117
DTITLE=Various Artist - Classic Blues, Jazz and Vaudeville Singers Vol. 2 (1920
DTITLE=1926)
DYEAR=1998
DGENRE=Blues
TTITLE0=Flo Bert - Don't Take Away Those Blues [take 2]
TTITLE1=Flo Bert - Don't Take Away Those Blues [take 3]
TTITLE2=Flo Bert - Whistle and I'll Come to Meet You [take 2]
TTITLE3=Flo Bert - I've Got the Blues for My Old Kentucky Home [take 4
TTITLE3=]
TTITLE4=Flo Bert - All By Myself
TTITLE5=Flo Bert - Hortense
TTITLE6=Flo Bert - No Wonder I'm Lonesome
TTITLE7=Flo Bert - Cow Bells
TTITLE8=Katie Crippen - Sing 'Em for Mamma, Play 'Em for Me [take 1]
TTITLE9=Daisy Martin - Spread Yo' Stuff [7467--]
TTITLE10=Lena Wilson - The Wicked Fives' Blues [take 2]
TTITLE11=Julia Moody - Laughin' Cryin' Blues
TTITLE12=Julia Moody - Starvin' for Love
TTITLE13=Inez Wallace - Go Get It
TTITLE14=Alberta Hunter - Down South Blues [take 2]
TTITLE15=Ida Cox - Any Woman's Blues [take 4]
TTITLE16=Hazel Meyers - He's Never Gonna Throw Me Down [12209]
TTITLE17=Viola McCoy - Laughin' Cryin' Blues [8269-A]
TTITLE18=Viola McCoy - Triflin' Blues (Daddy Don't You Trifle on Me) [
TTITLE18=8329- -]
TTITLE19=Viola McCoy - Just Thinkin' (Blues) [11657]
TTITLE20=Viola McCoy - Mistreatin' Daddy [12030]
TTITLE21=Viola McCoy - "Git" Goin' [take A]
TTITLE22=Viola McCoy - Some Day You'll Come Back to Me [take A]
EXTD=
EXTT0=
EXTT1=
EXTT2=
EXTT3=
EXTT4=
EXTT5=
EXTT6=
EXTT7=
EXTT8=
EXTT9=
EXTT10=
EXTT11=
EXTT12=
EXTT13=
EXTT14=
EXTT15=
EXTT16=
EXTT17=
EXTT18=
EXTT19=
EXTT20=
EXTT21=
EXTT22=
PLAYORDER=
